<mxfile host="app.diagrams.net" modified="2023-11-20T08:21:33.472Z" agent="Mozilla/5.0 (Windows NT 10.0; Win64; x64) AppleWebKit/537.36 (KHTML, like Gecko) Chrome/119.0.0.0 Safari/537.36" etag="S6JNiwsOo_7EhU0n8g_b" version="22.1.3" type="device">
  <diagram name="Página-1" id="YdoxaoMxAcrKadmhf8ba">
    <mxGraphModel dx="2261" dy="790" grid="1" gridSize="10" guides="1" tooltips="1" connect="1" arrows="1" fold="1" page="1" pageScale="1" pageWidth="827" pageHeight="1169" math="0" shadow="0">
      <root>
        <mxCell id="0" />
        <mxCell id="1" parent="0" />
        <mxCell id="6FDX0dz8mDDupZgGcFtC-3" value="" style="edgeStyle=orthogonalEdgeStyle;rounded=0;orthogonalLoop=1;jettySize=auto;html=1;" parent="1" source="6FDX0dz8mDDupZgGcFtC-1" target="6FDX0dz8mDDupZgGcFtC-2" edge="1">
          <mxGeometry relative="1" as="geometry" />
        </mxCell>
        <mxCell id="6FDX0dz8mDDupZgGcFtC-5" value="" style="edgeStyle=orthogonalEdgeStyle;rounded=0;orthogonalLoop=1;jettySize=auto;html=1;" parent="1" source="6FDX0dz8mDDupZgGcFtC-1" target="6FDX0dz8mDDupZgGcFtC-4" edge="1">
          <mxGeometry relative="1" as="geometry" />
        </mxCell>
        <mxCell id="6FDX0dz8mDDupZgGcFtC-1" value="Ecrã inicial" style="rounded=1;whiteSpace=wrap;html=1;" parent="1" vertex="1">
          <mxGeometry x="-40" y="250" width="120" height="60" as="geometry" />
        </mxCell>
        <mxCell id="6FDX0dz8mDDupZgGcFtC-7" value="" style="edgeStyle=orthogonalEdgeStyle;rounded=0;orthogonalLoop=1;jettySize=auto;html=1;" parent="1" source="6FDX0dz8mDDupZgGcFtC-2" target="6FDX0dz8mDDupZgGcFtC-6" edge="1">
          <mxGeometry relative="1" as="geometry" />
        </mxCell>
        <mxCell id="6FDX0dz8mDDupZgGcFtC-9" value="" style="edgeStyle=orthogonalEdgeStyle;rounded=0;orthogonalLoop=1;jettySize=auto;html=1;" parent="1" source="6FDX0dz8mDDupZgGcFtC-2" target="6FDX0dz8mDDupZgGcFtC-8" edge="1">
          <mxGeometry relative="1" as="geometry" />
        </mxCell>
        <mxCell id="6FDX0dz8mDDupZgGcFtC-25" style="edgeStyle=orthogonalEdgeStyle;rounded=0;orthogonalLoop=1;jettySize=auto;html=1;" parent="1" source="6FDX0dz8mDDupZgGcFtC-2" target="6FDX0dz8mDDupZgGcFtC-24" edge="1">
          <mxGeometry relative="1" as="geometry" />
        </mxCell>
        <mxCell id="6FDX0dz8mDDupZgGcFtC-2" value="Login/Registo" style="whiteSpace=wrap;html=1;rounded=1;" parent="1" vertex="1">
          <mxGeometry x="100" y="60" width="120" height="60" as="geometry" />
        </mxCell>
        <mxCell id="6FDX0dz8mDDupZgGcFtC-4" value="Sobre nós" style="whiteSpace=wrap;html=1;rounded=1;arcSize=15;" parent="1" vertex="1">
          <mxGeometry x="100" y="350" width="120" height="60" as="geometry" />
        </mxCell>
        <mxCell id="4KWr0Wx4HFBJf5zzftBq-5" value="" style="edgeStyle=orthogonalEdgeStyle;rounded=0;orthogonalLoop=1;jettySize=auto;html=1;" edge="1" parent="1" source="6FDX0dz8mDDupZgGcFtC-6" target="6FDX0dz8mDDupZgGcFtC-31">
          <mxGeometry relative="1" as="geometry" />
        </mxCell>
        <mxCell id="6FDX0dz8mDDupZgGcFtC-6" value="Ver jogos perto de mim" style="whiteSpace=wrap;html=1;rounded=1;" parent="1" vertex="1">
          <mxGeometry x="240" y="280" width="120" height="60" as="geometry" />
        </mxCell>
        <mxCell id="4KWr0Wx4HFBJf5zzftBq-9" style="edgeStyle=orthogonalEdgeStyle;rounded=0;orthogonalLoop=1;jettySize=auto;html=1;" edge="1" parent="1" source="6FDX0dz8mDDupZgGcFtC-8" target="6FDX0dz8mDDupZgGcFtC-31">
          <mxGeometry relative="1" as="geometry" />
        </mxCell>
        <mxCell id="6FDX0dz8mDDupZgGcFtC-8" value="Procurar por jogos de determinada equipa" style="whiteSpace=wrap;html=1;rounded=1;" parent="1" vertex="1">
          <mxGeometry x="240" y="370" width="120" height="60" as="geometry" />
        </mxCell>
        <mxCell id="6FDX0dz8mDDupZgGcFtC-18" style="edgeStyle=orthogonalEdgeStyle;rounded=0;orthogonalLoop=1;jettySize=auto;html=1;entryX=0;entryY=0.5;entryDx=0;entryDy=0;" parent="1" source="6FDX0dz8mDDupZgGcFtC-10" target="6FDX0dz8mDDupZgGcFtC-16" edge="1">
          <mxGeometry relative="1" as="geometry" />
        </mxCell>
        <mxCell id="6FDX0dz8mDDupZgGcFtC-20" style="edgeStyle=orthogonalEdgeStyle;rounded=0;orthogonalLoop=1;jettySize=auto;html=1;exitX=0.5;exitY=1;exitDx=0;exitDy=0;entryX=0;entryY=0.5;entryDx=0;entryDy=0;" parent="1" source="6FDX0dz8mDDupZgGcFtC-10" target="6FDX0dz8mDDupZgGcFtC-19" edge="1">
          <mxGeometry relative="1" as="geometry" />
        </mxCell>
        <mxCell id="6FDX0dz8mDDupZgGcFtC-22" style="edgeStyle=orthogonalEdgeStyle;rounded=0;orthogonalLoop=1;jettySize=auto;html=1;exitX=0.5;exitY=1;exitDx=0;exitDy=0;entryX=0;entryY=0.5;entryDx=0;entryDy=0;" parent="1" source="6FDX0dz8mDDupZgGcFtC-10" target="6FDX0dz8mDDupZgGcFtC-21" edge="1">
          <mxGeometry relative="1" as="geometry" />
        </mxCell>
        <mxCell id="6FDX0dz8mDDupZgGcFtC-10" value="Detalhes Jogo" style="whiteSpace=wrap;html=1;rounded=1;" parent="1" vertex="1">
          <mxGeometry x="530" y="330" width="120" height="60" as="geometry" />
        </mxCell>
        <mxCell id="6FDX0dz8mDDupZgGcFtC-16" value="Detalhes Estacionamento" style="whiteSpace=wrap;html=1;rounded=1;" parent="1" vertex="1">
          <mxGeometry x="670" y="220" width="120" height="60" as="geometry" />
        </mxCell>
        <mxCell id="6FDX0dz8mDDupZgGcFtC-19" value="Detalhes de Refeições" style="whiteSpace=wrap;html=1;rounded=1;" parent="1" vertex="1">
          <mxGeometry x="710" y="340" width="120" height="60" as="geometry" />
        </mxCell>
        <mxCell id="6FDX0dz8mDDupZgGcFtC-21" value="Detalhes de direções" style="whiteSpace=wrap;html=1;rounded=1;" parent="1" vertex="1">
          <mxGeometry x="700" y="440" width="120" height="60" as="geometry" />
        </mxCell>
        <mxCell id="4KWr0Wx4HFBJf5zzftBq-7" style="edgeStyle=orthogonalEdgeStyle;rounded=0;orthogonalLoop=1;jettySize=auto;html=1;entryX=0;entryY=0.5;entryDx=0;entryDy=0;" edge="1" parent="1" source="6FDX0dz8mDDupZgGcFtC-24" target="6FDX0dz8mDDupZgGcFtC-26">
          <mxGeometry relative="1" as="geometry" />
        </mxCell>
        <mxCell id="4KWr0Wx4HFBJf5zzftBq-10" style="edgeStyle=orthogonalEdgeStyle;rounded=0;orthogonalLoop=1;jettySize=auto;html=1;entryX=0;entryY=0.25;entryDx=0;entryDy=0;" edge="1" parent="1" source="6FDX0dz8mDDupZgGcFtC-24" target="6FDX0dz8mDDupZgGcFtC-27">
          <mxGeometry relative="1" as="geometry" />
        </mxCell>
        <mxCell id="6FDX0dz8mDDupZgGcFtC-24" value="Perfil Utilizador" style="whiteSpace=wrap;html=1;rounded=1;" parent="1" vertex="1">
          <mxGeometry x="250" y="60" width="120" height="60" as="geometry" />
        </mxCell>
        <mxCell id="4KWr0Wx4HFBJf5zzftBq-1" value="" style="edgeStyle=orthogonalEdgeStyle;rounded=0;orthogonalLoop=1;jettySize=auto;html=1;" edge="1" parent="1" source="6FDX0dz8mDDupZgGcFtC-26" target="6FDX0dz8mDDupZgGcFtC-27">
          <mxGeometry relative="1" as="geometry" />
        </mxCell>
        <mxCell id="6FDX0dz8mDDupZgGcFtC-26" value="Alterar Credenciais" style="whiteSpace=wrap;html=1;rounded=1;arcSize=15;" parent="1" vertex="1">
          <mxGeometry x="480" y="60" width="120" height="60" as="geometry" />
        </mxCell>
        <mxCell id="6FDX0dz8mDDupZgGcFtC-27" value="Inativar Conta" style="whiteSpace=wrap;html=1;rounded=1;arcSize=15;" parent="1" vertex="1">
          <mxGeometry x="490" y="200" width="120" height="60" as="geometry" />
        </mxCell>
        <mxCell id="6FDX0dz8mDDupZgGcFtC-31" value="Selecionar Jogo" style="whiteSpace=wrap;html=1;rounded=1;" parent="1" vertex="1">
          <mxGeometry x="400" y="320" width="120" height="60" as="geometry" />
        </mxCell>
        <mxCell id="6FDX0dz8mDDupZgGcFtC-34" style="edgeStyle=orthogonalEdgeStyle;rounded=0;orthogonalLoop=1;jettySize=auto;html=1;exitX=0.5;exitY=1;exitDx=0;exitDy=0;entryX=0.5;entryY=0;entryDx=0;entryDy=0;" parent="1" source="6FDX0dz8mDDupZgGcFtC-31" target="6FDX0dz8mDDupZgGcFtC-10" edge="1">
          <mxGeometry relative="1" as="geometry" />
        </mxCell>
      </root>
    </mxGraphModel>
  </diagram>
</mxfile>
